:version 1.10
:name ASF
:units
  mass 1
  length 1
  angle deg
:documentation
  ASF file generated by Kaydara
:root
  axis xyz
  order  tx ty tz rx ry rz
  position 0 0 0
  orientation 0 0 0
:bonedata
  begin
    id 1
    name SpineDummy
    direction 0.999998 -0.00179978 1.38929e-006
    length 3.60008
    axis 0 0 0 xyz
  end
  begin
    id 2
    name Spine
    direction 0.964365 0.262802 0.0305839
    length 8.13928
    axis 1.33928 -1.75354 15.2838 xyz
    dof rx ry rz
  end
  begin
    id 3
    name Spine1
    direction 0.811168 0.572065 0.12144
    length 7.14954
    axis 2.2224 -6.9761 35.2157 xyz
    dof rx ry rz
  end
  begin
    id 4
    name Neck
    direction 0 0 0
    length 0
    axis 2.2224 -6.9761 35.2157 xyz
    dof rx ry rz
  end
  begin
    id 5
    name HeadDummy
    direction 0.810939 0.572387 0.121455
    length 3.55534
    axis 2.2224 -6.9761 35.2157 xyz
  end
  begin
    id 6
    name Head
    direction 0.998226 -0.000232542 0.0595419
    length 7.35666
    axis -3.03688 -3.41352 -0.0133467 xyz
    dof rx ry rz
  end
  begin
    id 7
    name R_ClavicleDummy
    direction 0.531669 -0.194489 -0.824319
    length 2.49392
    axis 2.2224 -6.9761 35.2157 xyz
  end
  begin
    id 8
    name R_Clavicle
    direction -0.155119 0.0480802 -0.986725
    length 4.485
    axis -54.2764 80.6538 162.779 xyz
    dof rx ry rz
  end
  begin
    id 9
    name R_UpperArm
    direction -0.955567 0.200068 -0.216484
    length 10.1122
    axis -72.9943 12.5026 168.175 xyz
    dof rx ry rz
  end
  begin
    id 10
    name R_Forearm
    direction -0.61433 0.385743 0.688332
    length 9.39148
    axis -117.015 -43.4982 147.875 xyz
    dof rx ry rz
  end
  begin
    id 11
    name R_Hand
    direction -0.699429 0.0170333 0.714499
    length 3.66324
    axis -45.0303 -36.7097 175.478 xyz
    dof rx ry rz
  end
  begin
    id 12
    name L_ClavicleDummy
    direction 0.40287 -0.36502 0.839319
    length 2.49392
    axis 2.2224 -6.9761 35.2157 xyz
  end
  begin
    id 13
    name L_Clavicle
    direction -0.231271 -0.0726419 0.970174
    length 4.485
    axis 18.4357 -75.9711 -162.563 xyz
    dof rx ry rz
  end
  begin
    id 14
    name L_UpperArm
    direction -0.917494 0.144359 0.370629
    length 10.1122
    axis 56.0417 -21.7544 171.058 xyz
    dof rx ry rz
  end
  begin
    id 15
    name L_Forearm
    direction -0.496786 0.615074 -0.612281
    length 9.39148
    axis 89.8094 37.7546 128.927 xyz
    dof rx ry rz
  end
  begin
    id 16
    name L_Hand
    direction -0.409932 0.64962 -0.640274
    length 3.66324
    axis -0.424369 32.133 128.52 xyz
    dof rx ry rz
  end
  begin
    id 17
    name L_ThighDummy
    direction -1.84081e-006 1.87549e-006 1
    length 3.13049
    axis 0 0 0 xyz
  end
  begin
    id 18
    name L_Thigh
    direction -0.947739 0.307978 0.083308
    length 17.9961
    axis 173.219 -4.77873 161.998 xyz
    dof rx ry rz
  end
  begin
    id 19
    name L_Calf
    direction -0.728814 -0.684427 0.0197583
    length 13.3367
    axis 167.331 -1.13214 -136.799 xyz
    dof rx ry rz
  end
  begin
    id 20
    name L_Foot
    direction -0.9028 0.418719 0.0981191
    length 5.8674
    axis 163.436 11.5135 -155.37 xyz
    dof rx ry rz
  end
  begin
    id 21
    name L_Toe0
    direction -0.35341 0.886259 0.299411
    length 4.75286
    axis 169.316 -17.4222 111.74 xyz
    dof rx ry rz
  end
  begin
    id 22
    name R_ThighDummy
    direction 9.32778e-007 -8.82053e-007 -1
    length 3.13049
    axis 0 0 0 xyz
  end
  begin
    id 23
    name R_Thigh
    direction -0.925064 0.37528 -0.0585023
    length 17.9961
    axis -178.698 3.35385 157.919 xyz
    dof rx ry rz
  end
  begin
    id 24
    name R_Calf
    direction -0.68969 -0.718776 -0.0876886
    length 13.3367
    axis -160.504 5.03065 -133.817 xyz
    dof rx ry rz
  end
  begin
    id 25
    name R_Foot
    direction -0.857405 0.418858 -0.299022
    length 5.8674
    axis -161.328 4.38911 -154.413 xyz
    dof rx ry rz
  end
  begin
    id 26
    name R_Toe0
    direction -0.100745 0.952789 -0.286433
    length 4.75286
    axis 171.683 16.6445 96.0359 xyz
    dof rx ry rz
  end
:hierarchy
  begin
    root SpineDummy L_ThighDummy R_ThighDummy
    SpineDummy Spine
    Spine Spine1
    Spine1 Neck
    Neck HeadDummy R_ClavicleDummy L_ClavicleDummy
    HeadDummy Head
    R_ClavicleDummy R_Clavicle
    R_Clavicle R_UpperArm
    R_UpperArm R_Forearm
    R_Forearm R_Hand
    L_ClavicleDummy L_Clavicle
    L_Clavicle L_UpperArm
    L_UpperArm L_Forearm
    L_Forearm L_Hand
    L_ThighDummy L_Thigh
    L_Thigh L_Calf
    L_Calf L_Foot
    L_Foot L_Toe0
    R_ThighDummy R_Thigh
    R_Thigh R_Calf
    R_Calf R_Foot
    R_Foot R_Toe0
  end

:SAMPLES-PER-SECOND 30
:FULLY-SPECIFIED
:DEGREES
231
root  -16.0104 30.8779 3.9151 -87.4883 5.41264 87.9954
Spine  -8.90431 -11.9 2.02687
Spine1  -7.7145 22.7759 -3.50875
Neck  3.97569e-016 0 -2.38542e-015
Head  -14.1414 9.01004 22.8409
R_Clavicle  0.811911 -1.00012 4.22588
R_UpperArm  43.7943 12.8516 71.5232
R_Forearm  19.3492 -28.9654 22.5035
R_Hand  -0.477586 7.20069 -14.513
L_Clavicle  -0.219554 0.473382 1.51906
L_UpperArm  -43.1964 -18.6658 39.5883
L_Forearm  1.60162 27.022 36.1013
L_Hand  -0.210483 5.78058 -1.94611
L_Thigh  2.38552 13.1442 7.73351
L_Calf  9.37929 -3.06554 22.7591
L_Foot  0.965491 -1.9317 7.75069
L_Toe0  0.505156 0.034446 -6.1361
R_Thigh  -26.7053 -9.80906 3.78225
R_Calf  -3.98622 5.23457 16.5526
R_Foot  2.40598 8.05516 0.584715
R_Toe0  7.91964 -1.14878 -12.0486
232
root  -18.0361 30.4947 4.99571 -94.8935 3.17298 82.552
Spine  -9.46632 -15.4408 4.92192
Spine1  -5.9957 19.1693 2.12382
Neck  3.97569e-016 0 -2.38542e-015
Head  -17.5078 9.48715 20.8938
R_Clavicle  0.536331 -5.88119 2.92127
R_UpperArm  41.077 7.5349 71.2625
R_Forearm  16.6574 -32.2812 23.0124
R_Hand  -0.217603 8.04816 -12.8899
L_Clavicle  -0.426923 0.979524 3.01288
L_UpperArm  -50.6913 -23.4115 36.1575
L_Forearm  -1.38452 24.6452 31.9963
L_Hand  -0.355806 6.8084 -3.07792
L_Thigh  -3.54741 7.20798 6.43321
L_Calf  11.4454 -2.19448 16.1724
L_Foot  0.86001 -4.46396 11.8303
L_Toe0  0.505156 0.034446 -6.1361
R_Thigh  -24.7767 -10.5793 10.0686
R_Calf  -1.12545 -0.103151 -0.435021
R_Foot  1.4096 3.40354 -5.45333
R_Toe0  10.9007 -2.1666 -10.2403
233
root  -19.8826 29.7005 5.85258 -101.016 0.529686 78.814
Spine  -9.19182 -16.5845 5.34904
Spine1  -5.01189 13.8382 6.80622
Neck  3.97569e-016 0 -2.38542e-015
Head  -21.0669 8.7911 19.4046
R_Clavicle  0.448492 -9.02293 2.3633
R_UpperArm  39.1362 -0.870937 69.8451
R_Forearm  9.26445 -36.3142 24.4098
R_Hand  0.0291952 8.93672 -11.5717
L_Clavicle  -0.713424 2.32192 5.36254
L_UpperArm  -53.6169 -32.2704 28.7673
L_Forearm  -4.16588 21.4015 26.9054
L_Hand  -0.551751 6.38089 -5.06635
L_Thigh  -7.63224 2.38565 7.48632
L_Calf  6.29129 -1.00753 7.59803
L_Foot  1.52135 -4.69429 16.1864
L_Toe0  0.505156 0.034446 -6.1361
R_Thigh  -23.4375 -8.49542 12.4295
R_Calf  -0.360763 -7.6464 -24.6416
R_Foot  1.35749 4.4968 -0.841993
R_Toe0  -2.85755 -0.11668 -17.9212
234
root  -21.6486 29.0244 6.52805 -106.838 -1.2056 76.6534
Spine  -8.13188 -17.2907 4.39411
Spine1  -4.23882 10.7625 8.86761
Neck  3.97569e-016 0 -2.38542e-015
Head  -24.4622 7.63898 18.5454
R_Clavicle  0.493272 -10.9932 2.84173
R_UpperArm  38.7538 -10.6105 67.1542
R_Forearm  0.488307 -39.9976 28.0665
R_Hand  0.245651 10.2396 -10.8138
L_Clavicle  -0.814882 4.38773 6.7832
L_UpperArm  -53.7553 -37.175 17.7621
L_Forearm  -6.70399 16.0117 19.3446
L_Hand  -0.669556 5.71225 -6.59871
L_Thigh  -10.8295 -1.43228 9.77847
L_Calf  0.54004 -0.0983173 1.08392
L_Foot  2.23656 -3.83816 18.197
L_Toe0  0.505156 0.034446 -6.1361
R_Thigh  -17.6356 -5.07765 9.30257
R_Calf  4.65455 -13.3084 -47.0701
R_Foot  0.763368 3.56265 3.3252
R_Toe0  -1.78853 -0.272788 -17.3235
235
root  -23.2911 28.8644 7.04095 -113.747 -2.2726 75.9886
Spine  -7.25624 -18.8898 3.34468
Spine1  -3.49915 10.8823 8.67106
Neck  3.97569e-016 0 -2.38542e-015
Head  -26.2224 7.20622 17.9885
R_Clavicle  0.569377 -12.6298 3.82747
R_UpperArm  40.5822 -18.5054 62.5673
R_Forearm  -5.21877 -41.9645 33.2303
R_Hand  0.870016 11.5981 -7.701
L_Clavicle  -0.747395 5.98119 6.54784
L_UpperArm  -51.9166 -35.2471 8.71679
L_Forearm  -8.29926 9.28095 10.8617
L_Hand  -0.659636 5.70466 -6.4928
L_Thigh  -15.1142 -3.09878 11.2169
L_Calf  -2.58852 0.217735 -1.25718
L_Foot  3.00127 -2.07925 18.3025
L_Toe0  0.505156 0.034446 -6.1361
R_Thigh  -6.31904 0.0955345 1.96675
R_Calf  12.4835 -15.9607 -62.2687
R_Foot  1.10691 5.62443 8.93143
R_Toe0  -1.78853 -0.272788 -17.3235
236
root  -24.7131 29.345 7.38572 -121.689 -2.2967 76.4115
Spine  -7.69704 -20.7436 2.16064
Spine1  -3.92553 12.8488 7.02878
Neck  3.97569e-016 0 -2.38542e-015
Head  -25.3484 7.71868 17.9301
R_Clavicle  0.586937 -14.5525 4.48925
R_UpperArm  43.6149 -22.8019 57.4218
R_Forearm  -6.36356 -42.1962 35.9167
R_Hand  1.65775 11.6965 -3.03751
L_Clavicle  -0.664321 7.80622 6.12228
L_UpperArm  -48.6572 -31.7122 4.2926
L_Forearm  -7.4337 5.05655 5.84534
L_Hand  -0.563344 5.61673 -5.56927
L_Thigh  -20.1222 -2.61522 11.3645
L_Calf  -7.26492 -0.0919252 0.876524
L_Foot  3.35532 -0.350718 16.6012
L_Toe0  0.505156 0.034446 -6.1361
R_Thigh  6.13395 6.3094 -3.94696
R_Calf  12.0176 -16.6793 -68.0545
R_Foot  2.0437 8.66403 13.6941
R_Toe0  -1.78853 -0.272788 -17.3235
